<mxfile host="app.diagrams.net" modified="2020-11-28T08:49:51.673Z" agent="5.0 (Windows NT 10.0; Win64; x64) AppleWebKit/537.36 (KHTML, like Gecko) Chrome/87.0.4280.66 Safari/537.36" etag="8Q7_CzhORLX7oWSQypou" version="13.10.2" type="github">
  <diagram id="C5RBs43oDa-KdzZeNtuy" name="Page-1">
    <mxGraphModel dx="4655" dy="3964" grid="1" gridSize="10" guides="1" tooltips="1" connect="1" arrows="1" fold="1" page="1" pageScale="1" pageWidth="827" pageHeight="1169" math="0" shadow="0">
      <root>
        <mxCell id="WIyWlLk6GJQsqaUBKTNV-0" />
        <mxCell id="WIyWlLk6GJQsqaUBKTNV-1" parent="WIyWlLk6GJQsqaUBKTNV-0" />
        <mxCell id="WIyWlLk6GJQsqaUBKTNV-2" value="" style="rounded=0;html=1;jettySize=auto;orthogonalLoop=1;fontSize=11;endArrow=block;endFill=0;endSize=8;strokeWidth=1;shadow=0;labelBackgroundColor=none;edgeStyle=orthogonalEdgeStyle;" parent="WIyWlLk6GJQsqaUBKTNV-1" source="WIyWlLk6GJQsqaUBKTNV-3" target="WIyWlLk6GJQsqaUBKTNV-6" edge="1">
          <mxGeometry relative="1" as="geometry" />
        </mxCell>
        <mxCell id="WIyWlLk6GJQsqaUBKTNV-3" value="문자열 해석" style="rounded=1;whiteSpace=wrap;html=1;fontSize=12;glass=0;strokeWidth=1;shadow=0;" parent="WIyWlLk6GJQsqaUBKTNV-1" vertex="1">
          <mxGeometry x="545" y="180" width="160" height="40" as="geometry" />
        </mxCell>
        <mxCell id="WIyWlLk6GJQsqaUBKTNV-4" value="Yes" style="rounded=0;html=1;jettySize=auto;orthogonalLoop=1;fontSize=11;endArrow=block;endFill=0;endSize=8;strokeWidth=1;shadow=0;labelBackgroundColor=none;edgeStyle=orthogonalEdgeStyle;" parent="WIyWlLk6GJQsqaUBKTNV-1" source="WIyWlLk6GJQsqaUBKTNV-6" target="WIyWlLk6GJQsqaUBKTNV-10" edge="1">
          <mxGeometry y="20" relative="1" as="geometry">
            <mxPoint as="offset" />
          </mxGeometry>
        </mxCell>
        <mxCell id="WIyWlLk6GJQsqaUBKTNV-5" value="No" style="edgeStyle=orthogonalEdgeStyle;rounded=0;html=1;jettySize=auto;orthogonalLoop=1;fontSize=11;endArrow=block;endFill=0;endSize=8;strokeWidth=1;shadow=0;labelBackgroundColor=none;entryX=1;entryY=0.5;entryDx=0;entryDy=0;exitX=0;exitY=0.5;exitDx=0;exitDy=0;" parent="WIyWlLk6GJQsqaUBKTNV-1" source="WIyWlLk6GJQsqaUBKTNV-6" target="WIyWlLk6GJQsqaUBKTNV-7" edge="1">
          <mxGeometry y="10" relative="1" as="geometry">
            <mxPoint as="offset" />
            <mxPoint x="276" y="310" as="sourcePoint" />
          </mxGeometry>
        </mxCell>
        <mxCell id="WIyWlLk6GJQsqaUBKTNV-6" value="&#39;%&#39; 인가?" style="rhombus;whiteSpace=wrap;html=1;shadow=0;fontFamily=Helvetica;fontSize=12;align=center;strokeWidth=1;spacing=6;spacingTop=-4;" parent="WIyWlLk6GJQsqaUBKTNV-1" vertex="1">
          <mxGeometry x="555" y="270" width="140" height="80" as="geometry" />
        </mxCell>
        <mxCell id="OvsMwWnRRP1DeN86lsT_-8" style="edgeStyle=orthogonalEdgeStyle;rounded=0;orthogonalLoop=1;jettySize=auto;html=1;exitX=0.5;exitY=0;exitDx=0;exitDy=0;entryX=0;entryY=0.5;entryDx=0;entryDy=0;dashed=1;endArrow=block;endFill=0;" edge="1" parent="WIyWlLk6GJQsqaUBKTNV-1" source="WIyWlLk6GJQsqaUBKTNV-7" target="WIyWlLk6GJQsqaUBKTNV-3">
          <mxGeometry relative="1" as="geometry" />
        </mxCell>
        <mxCell id="WIyWlLk6GJQsqaUBKTNV-7" value="write" style="rounded=1;whiteSpace=wrap;html=1;fontSize=12;glass=0;strokeWidth=1;shadow=0;" parent="WIyWlLk6GJQsqaUBKTNV-1" vertex="1">
          <mxGeometry x="360" y="290" width="120" height="40" as="geometry" />
        </mxCell>
        <mxCell id="WIyWlLk6GJQsqaUBKTNV-8" value="" style="rounded=0;html=1;jettySize=auto;orthogonalLoop=1;fontSize=11;endArrow=block;endFill=0;endSize=8;strokeWidth=1;shadow=0;labelBackgroundColor=none;edgeStyle=orthogonalEdgeStyle;entryX=0.5;entryY=0;entryDx=0;entryDy=0;" parent="WIyWlLk6GJQsqaUBKTNV-1" source="WIyWlLk6GJQsqaUBKTNV-10" target="HWznGPXGOaG3OOnh7ew8-0" edge="1">
          <mxGeometry x="0.2727" y="20" relative="1" as="geometry">
            <mxPoint as="offset" />
            <mxPoint x="645" y="530" as="targetPoint" />
            <Array as="points" />
          </mxGeometry>
        </mxCell>
        <mxCell id="WIyWlLk6GJQsqaUBKTNV-9" value="Yes" style="edgeStyle=orthogonalEdgeStyle;rounded=0;html=1;jettySize=auto;orthogonalLoop=1;fontSize=11;endArrow=block;endFill=0;endSize=8;strokeWidth=1;shadow=0;labelBackgroundColor=none;entryX=1;entryY=0.5;entryDx=0;entryDy=0;exitX=0;exitY=0.5;exitDx=0;exitDy=0;" parent="WIyWlLk6GJQsqaUBKTNV-1" source="WIyWlLk6GJQsqaUBKTNV-10" target="WIyWlLk6GJQsqaUBKTNV-12" edge="1">
          <mxGeometry y="10" relative="1" as="geometry">
            <mxPoint as="offset" />
            <mxPoint x="271" y="440" as="sourcePoint" />
          </mxGeometry>
        </mxCell>
        <mxCell id="WIyWlLk6GJQsqaUBKTNV-10" value="flag가 있는가?" style="rhombus;whiteSpace=wrap;html=1;shadow=0;fontFamily=Helvetica;fontSize=12;align=center;strokeWidth=1;spacing=6;spacingTop=-4;" parent="WIyWlLk6GJQsqaUBKTNV-1" vertex="1">
          <mxGeometry x="560" y="400" width="130" height="80" as="geometry" />
        </mxCell>
        <mxCell id="WIyWlLk6GJQsqaUBKTNV-12" value="flag 기록" style="rounded=1;whiteSpace=wrap;html=1;fontSize=12;glass=0;strokeWidth=1;shadow=0;" parent="WIyWlLk6GJQsqaUBKTNV-1" vertex="1">
          <mxGeometry x="360" y="420" width="120" height="40" as="geometry" />
        </mxCell>
        <mxCell id="HWznGPXGOaG3OOnh7ew8-0" value="width 있는가?" style="rhombus;whiteSpace=wrap;html=1;" parent="WIyWlLk6GJQsqaUBKTNV-1" vertex="1">
          <mxGeometry x="560" y="700" width="130" height="80" as="geometry" />
        </mxCell>
        <mxCell id="HWznGPXGOaG3OOnh7ew8-6" value="width 기록&lt;br&gt;없으면 -1" style="rounded=1;whiteSpace=wrap;html=1;fontSize=12;glass=0;strokeWidth=1;shadow=0;" parent="WIyWlLk6GJQsqaUBKTNV-1" vertex="1">
          <mxGeometry x="330" y="720" width="150" height="40" as="geometry" />
        </mxCell>
        <mxCell id="HWznGPXGOaG3OOnh7ew8-9" value="정밀도(.) 있는가?" style="rhombus;whiteSpace=wrap;html=1;" parent="WIyWlLk6GJQsqaUBKTNV-1" vertex="1">
          <mxGeometry x="560" y="840" width="130" height="80" as="geometry" />
        </mxCell>
        <mxCell id="HWznGPXGOaG3OOnh7ew8-10" value="" style="rounded=0;html=1;jettySize=auto;orthogonalLoop=1;fontSize=11;endArrow=block;endFill=0;endSize=8;strokeWidth=1;shadow=0;labelBackgroundColor=none;edgeStyle=orthogonalEdgeStyle;entryX=0.5;entryY=0;entryDx=0;entryDy=0;exitX=0.5;exitY=1;exitDx=0;exitDy=0;" parent="WIyWlLk6GJQsqaUBKTNV-1" source="HWznGPXGOaG3OOnh7ew8-0" target="HWznGPXGOaG3OOnh7ew8-9" edge="1">
          <mxGeometry x="0.2727" y="20" relative="1" as="geometry">
            <mxPoint as="offset" />
            <mxPoint x="635" y="670" as="sourcePoint" />
            <mxPoint x="635" y="760" as="targetPoint" />
            <Array as="points" />
          </mxGeometry>
        </mxCell>
        <mxCell id="HWznGPXGOaG3OOnh7ew8-12" value="1. 정밀도 있음 check&lt;br&gt;- 있다면 0이상 정수&lt;br&gt;- 없다면 -1" style="rounded=1;whiteSpace=wrap;html=1;fontSize=12;glass=0;strokeWidth=1;shadow=0;" parent="WIyWlLk6GJQsqaUBKTNV-1" vertex="1">
          <mxGeometry x="320" y="850" width="150" height="60" as="geometry" />
        </mxCell>
        <mxCell id="HWznGPXGOaG3OOnh7ew8-13" value="길이 있는가?&lt;br&gt;(l, ll, h, hh)" style="rhombus;whiteSpace=wrap;html=1;" parent="WIyWlLk6GJQsqaUBKTNV-1" vertex="1">
          <mxGeometry x="560" y="990" width="130" height="80" as="geometry" />
        </mxCell>
        <mxCell id="HWznGPXGOaG3OOnh7ew8-15" value="길이 구분하는 &lt;br&gt;문자열 저장" style="rounded=1;whiteSpace=wrap;html=1;fontSize=12;glass=0;strokeWidth=1;shadow=0;" parent="WIyWlLk6GJQsqaUBKTNV-1" vertex="1">
          <mxGeometry x="360" y="1010" width="120" height="40" as="geometry" />
        </mxCell>
        <mxCell id="HWznGPXGOaG3OOnh7ew8-16" value="" style="rounded=0;html=1;jettySize=auto;orthogonalLoop=1;fontSize=11;endArrow=block;endFill=0;endSize=8;strokeWidth=1;shadow=0;labelBackgroundColor=none;edgeStyle=orthogonalEdgeStyle;exitX=0.5;exitY=1;exitDx=0;exitDy=0;" parent="WIyWlLk6GJQsqaUBKTNV-1" source="HWznGPXGOaG3OOnh7ew8-9" edge="1">
          <mxGeometry x="0.2727" y="20" relative="1" as="geometry">
            <mxPoint as="offset" />
            <mxPoint x="624.5" y="925" as="sourcePoint" />
            <mxPoint x="625" y="990" as="targetPoint" />
            <Array as="points" />
          </mxGeometry>
        </mxCell>
        <mxCell id="HWznGPXGOaG3OOnh7ew8-17" value="서식이 올바른가 ?" style="rhombus;whiteSpace=wrap;html=1;" parent="WIyWlLk6GJQsqaUBKTNV-1" vertex="1">
          <mxGeometry x="560" y="1130" width="130" height="80" as="geometry" />
        </mxCell>
        <mxCell id="HWznGPXGOaG3OOnh7ew8-19" value="Error" style="rounded=1;whiteSpace=wrap;html=1;fontSize=12;glass=0;strokeWidth=1;shadow=0;" parent="WIyWlLk6GJQsqaUBKTNV-1" vertex="1">
          <mxGeometry x="365" y="1150" width="120" height="40" as="geometry" />
        </mxCell>
        <mxCell id="HWznGPXGOaG3OOnh7ew8-20" value="" style="rounded=0;html=1;jettySize=auto;orthogonalLoop=1;fontSize=11;endArrow=block;endFill=0;endSize=8;strokeWidth=1;shadow=0;labelBackgroundColor=none;edgeStyle=orthogonalEdgeStyle;exitX=0.5;exitY=1;exitDx=0;exitDy=0;entryX=0.5;entryY=0;entryDx=0;entryDy=0;" parent="WIyWlLk6GJQsqaUBKTNV-1" source="HWznGPXGOaG3OOnh7ew8-13" target="HWznGPXGOaG3OOnh7ew8-17" edge="1">
          <mxGeometry x="0.2727" y="20" relative="1" as="geometry">
            <mxPoint as="offset" />
            <mxPoint x="624.5" y="1180" as="sourcePoint" />
            <mxPoint x="625" y="1140" as="targetPoint" />
            <Array as="points" />
          </mxGeometry>
        </mxCell>
        <mxCell id="HWznGPXGOaG3OOnh7ew8-26" value="Yes" style="rounded=0;html=1;jettySize=auto;orthogonalLoop=1;fontSize=11;endArrow=block;endFill=0;endSize=8;strokeWidth=1;shadow=0;labelBackgroundColor=none;edgeStyle=orthogonalEdgeStyle;exitX=0.5;exitY=1;exitDx=0;exitDy=0;entryX=0.5;entryY=0;entryDx=0;entryDy=0;" parent="WIyWlLk6GJQsqaUBKTNV-1" source="HWznGPXGOaG3OOnh7ew8-17" edge="1">
          <mxGeometry x="0.2727" y="20" relative="1" as="geometry">
            <mxPoint as="offset" />
            <mxPoint x="634.5" y="1190" as="sourcePoint" />
            <mxPoint x="625" y="1280" as="targetPoint" />
            <Array as="points" />
          </mxGeometry>
        </mxCell>
        <mxCell id="HWznGPXGOaG3OOnh7ew8-31" value="서식 문자를 저장" style="rounded=1;whiteSpace=wrap;html=1;" parent="WIyWlLk6GJQsqaUBKTNV-1" vertex="1">
          <mxGeometry x="565" y="1280" width="120" height="60" as="geometry" />
        </mxCell>
        <mxCell id="HWznGPXGOaG3OOnh7ew8-33" value="Yes" style="edgeStyle=orthogonalEdgeStyle;rounded=0;html=1;jettySize=auto;orthogonalLoop=1;fontSize=11;endArrow=block;endFill=0;endSize=8;strokeWidth=1;shadow=0;labelBackgroundColor=none;entryX=1;entryY=0.5;entryDx=0;entryDy=0;exitX=0;exitY=0.5;exitDx=0;exitDy=0;" parent="WIyWlLk6GJQsqaUBKTNV-1" source="HWznGPXGOaG3OOnh7ew8-0" target="HWznGPXGOaG3OOnh7ew8-6" edge="1">
          <mxGeometry y="10" relative="1" as="geometry">
            <mxPoint as="offset" />
            <mxPoint x="570" y="645" as="sourcePoint" />
            <mxPoint x="490" y="645" as="targetPoint" />
          </mxGeometry>
        </mxCell>
        <mxCell id="HWznGPXGOaG3OOnh7ew8-34" value="Yes" style="edgeStyle=orthogonalEdgeStyle;rounded=0;html=1;jettySize=auto;orthogonalLoop=1;fontSize=11;endArrow=block;endFill=0;endSize=8;strokeWidth=1;shadow=0;labelBackgroundColor=none;entryX=1;entryY=0.5;entryDx=0;entryDy=0;exitX=0;exitY=0.5;exitDx=0;exitDy=0;" parent="WIyWlLk6GJQsqaUBKTNV-1" source="HWznGPXGOaG3OOnh7ew8-9" target="HWznGPXGOaG3OOnh7ew8-12" edge="1">
          <mxGeometry y="10" relative="1" as="geometry">
            <mxPoint as="offset" />
            <mxPoint x="570" y="750" as="sourcePoint" />
            <mxPoint x="490" y="750" as="targetPoint" />
          </mxGeometry>
        </mxCell>
        <mxCell id="HWznGPXGOaG3OOnh7ew8-35" value="Yes" style="edgeStyle=orthogonalEdgeStyle;rounded=0;html=1;jettySize=auto;orthogonalLoop=1;fontSize=11;endArrow=block;endFill=0;endSize=8;strokeWidth=1;shadow=0;labelBackgroundColor=none;entryX=1;entryY=0.5;entryDx=0;entryDy=0;exitX=0;exitY=0.5;exitDx=0;exitDy=0;" parent="WIyWlLk6GJQsqaUBKTNV-1" source="HWznGPXGOaG3OOnh7ew8-13" target="HWznGPXGOaG3OOnh7ew8-15" edge="1">
          <mxGeometry y="10" relative="1" as="geometry">
            <mxPoint as="offset" />
            <mxPoint x="570" y="890" as="sourcePoint" />
            <mxPoint x="490" y="890" as="targetPoint" />
          </mxGeometry>
        </mxCell>
        <mxCell id="HWznGPXGOaG3OOnh7ew8-36" value="Yes" style="edgeStyle=orthogonalEdgeStyle;rounded=0;html=1;jettySize=auto;orthogonalLoop=1;fontSize=11;endArrow=block;endFill=0;endSize=8;strokeWidth=1;shadow=0;labelBackgroundColor=none;entryX=1;entryY=0.5;entryDx=0;entryDy=0;exitX=0;exitY=0.5;exitDx=0;exitDy=0;" parent="WIyWlLk6GJQsqaUBKTNV-1" source="HWznGPXGOaG3OOnh7ew8-17" target="HWznGPXGOaG3OOnh7ew8-19" edge="1">
          <mxGeometry y="10" relative="1" as="geometry">
            <mxPoint as="offset" />
            <mxPoint x="570" y="1040" as="sourcePoint" />
            <mxPoint x="490" y="1040" as="targetPoint" />
          </mxGeometry>
        </mxCell>
        <mxCell id="HWznGPXGOaG3OOnh7ew8-40" value="자료형을 지정하여 가변인자를 받아온다.&lt;br&gt;서식 자료형에 따른 va_arg매크로 실행.&lt;br&gt;=&amp;gt; 길이가 있는경우는 분기하여 처리" style="rounded=1;whiteSpace=wrap;html=1;" parent="WIyWlLk6GJQsqaUBKTNV-1" vertex="1">
          <mxGeometry x="847.87" y="1020" width="250.76" height="70" as="geometry" />
        </mxCell>
        <mxCell id="HWznGPXGOaG3OOnh7ew8-42" value="" style="endArrow=block;html=1;dashed=1;endFill=0;entryX=0.5;entryY=1;entryDx=0;entryDy=0;exitX=1;exitY=0.5;exitDx=0;exitDy=0;" parent="WIyWlLk6GJQsqaUBKTNV-1" source="HWznGPXGOaG3OOnh7ew8-31" target="HWznGPXGOaG3OOnh7ew8-47" edge="1">
          <mxGeometry width="50" height="50" relative="1" as="geometry">
            <mxPoint x="782.25" y="1310" as="sourcePoint" />
            <mxPoint x="978.25" y="1230" as="targetPoint" />
            <Array as="points">
              <mxPoint x="973.25" y="1310" />
            </Array>
          </mxGeometry>
        </mxCell>
        <mxCell id="HWznGPXGOaG3OOnh7ew8-47" value="길이 있는가 ?" style="rhombus;whiteSpace=wrap;html=1;" parent="WIyWlLk6GJQsqaUBKTNV-1" vertex="1">
          <mxGeometry x="908.25" y="1130" width="130" height="80" as="geometry" />
        </mxCell>
        <mxCell id="HWznGPXGOaG3OOnh7ew8-48" value="Yes" style="edgeStyle=orthogonalEdgeStyle;rounded=0;html=1;jettySize=auto;orthogonalLoop=1;fontSize=11;endArrow=block;endFill=0;endSize=8;strokeWidth=1;shadow=0;labelBackgroundColor=none;exitX=1;exitY=0.5;exitDx=0;exitDy=0;dashed=1;entryX=0;entryY=0.5;entryDx=0;entryDy=0;" parent="WIyWlLk6GJQsqaUBKTNV-1" source="HWznGPXGOaG3OOnh7ew8-47" target="HWznGPXGOaG3OOnh7ew8-49" edge="1">
          <mxGeometry y="10" relative="1" as="geometry">
            <mxPoint as="offset" />
            <mxPoint x="662.25" y="1180" as="sourcePoint" />
            <mxPoint x="1103.25" y="1170" as="targetPoint" />
          </mxGeometry>
        </mxCell>
        <mxCell id="HWznGPXGOaG3OOnh7ew8-49" value="서식 자료형에 따른&lt;br&gt;가변인자 받기위한 자료형 check" style="rounded=1;whiteSpace=wrap;html=1;" parent="WIyWlLk6GJQsqaUBKTNV-1" vertex="1">
          <mxGeometry x="1240" y="1140" width="154" height="60" as="geometry" />
        </mxCell>
        <mxCell id="HWznGPXGOaG3OOnh7ew8-95" value="" style="edgeStyle=orthogonalEdgeStyle;rounded=0;html=1;jettySize=auto;orthogonalLoop=1;fontSize=11;endArrow=block;endFill=0;endSize=8;strokeWidth=1;shadow=0;labelBackgroundColor=none;exitX=0.5;exitY=0;exitDx=0;exitDy=0;dashed=1;entryX=0.5;entryY=1;entryDx=0;entryDy=0;" parent="WIyWlLk6GJQsqaUBKTNV-1" source="HWznGPXGOaG3OOnh7ew8-47" target="HWznGPXGOaG3OOnh7ew8-40" edge="1">
          <mxGeometry y="10" relative="1" as="geometry">
            <mxPoint as="offset" />
            <mxPoint x="1048.25" y="1180" as="sourcePoint" />
            <mxPoint x="1113.25" y="1180" as="targetPoint" />
          </mxGeometry>
        </mxCell>
        <mxCell id="HWznGPXGOaG3OOnh7ew8-205" style="edgeStyle=orthogonalEdgeStyle;rounded=0;orthogonalLoop=1;jettySize=auto;html=1;entryX=0.5;entryY=1;entryDx=0;entryDy=0;dashed=1;endArrow=block;endFill=0;" parent="WIyWlLk6GJQsqaUBKTNV-1" source="HWznGPXGOaG3OOnh7ew8-129" target="HWznGPXGOaG3OOnh7ew8-133" edge="1">
          <mxGeometry relative="1" as="geometry" />
        </mxCell>
        <mxCell id="t6AYDTPspbTz2cC4Gzjq-4" style="edgeStyle=orthogonalEdgeStyle;rounded=0;orthogonalLoop=1;jettySize=auto;html=1;dashed=1;endArrow=block;endFill=0;" parent="WIyWlLk6GJQsqaUBKTNV-1" source="HWznGPXGOaG3OOnh7ew8-129" target="t6AYDTPspbTz2cC4Gzjq-6" edge="1">
          <mxGeometry relative="1" as="geometry">
            <mxPoint x="1160" y="935" as="targetPoint" />
          </mxGeometry>
        </mxCell>
        <mxCell id="HWznGPXGOaG3OOnh7ew8-129" value="자료형에 따라 가변인수의 크기를 구한다.&lt;br&gt;(문자형, 정수형, 실수형)" style="rounded=1;whiteSpace=wrap;html=1;" parent="WIyWlLk6GJQsqaUBKTNV-1" vertex="1">
          <mxGeometry x="847.87" y="900" width="250.76" height="70" as="geometry" />
        </mxCell>
        <mxCell id="HWznGPXGOaG3OOnh7ew8-130" value="" style="edgeStyle=orthogonalEdgeStyle;rounded=0;html=1;jettySize=auto;orthogonalLoop=1;fontSize=11;endArrow=block;endFill=0;endSize=8;strokeWidth=1;shadow=0;labelBackgroundColor=none;exitX=0.5;exitY=0;exitDx=0;exitDy=0;dashed=1;" parent="WIyWlLk6GJQsqaUBKTNV-1" source="HWznGPXGOaG3OOnh7ew8-40" edge="1">
          <mxGeometry y="10" relative="1" as="geometry">
            <mxPoint as="offset" />
            <mxPoint x="983.25" y="1140" as="sourcePoint" />
            <mxPoint x="973" y="970" as="targetPoint" />
            <Array as="points">
              <mxPoint x="973" y="990" />
              <mxPoint x="973" y="990" />
            </Array>
          </mxGeometry>
        </mxCell>
        <mxCell id="HWznGPXGOaG3OOnh7ew8-197" style="edgeStyle=orthogonalEdgeStyle;rounded=0;orthogonalLoop=1;jettySize=auto;html=1;entryX=0.5;entryY=1;entryDx=0;entryDy=0;dashed=1;endArrow=block;endFill=0;" parent="WIyWlLk6GJQsqaUBKTNV-1" source="HWznGPXGOaG3OOnh7ew8-133" target="HWznGPXGOaG3OOnh7ew8-139" edge="1">
          <mxGeometry relative="1" as="geometry" />
        </mxCell>
        <mxCell id="HWznGPXGOaG3OOnh7ew8-209" style="edgeStyle=orthogonalEdgeStyle;rounded=0;orthogonalLoop=1;jettySize=auto;html=1;entryX=0;entryY=0.5;entryDx=0;entryDy=0;dashed=1;endArrow=block;endFill=0;" parent="WIyWlLk6GJQsqaUBKTNV-1" source="HWznGPXGOaG3OOnh7ew8-133" target="HWznGPXGOaG3OOnh7ew8-192" edge="1">
          <mxGeometry relative="1" as="geometry" />
        </mxCell>
        <mxCell id="HWznGPXGOaG3OOnh7ew8-133" value="정밀도 크기 &amp;lt;-&amp;gt; 폭 크기 &amp;lt;-&amp;gt; 가변인자 크기&lt;br&gt;중 Max값으로 동적할당 한다.&lt;br&gt;* 이 때 마지막 null문자를 위해 +1만큼 추가할당" style="rounded=1;whiteSpace=wrap;html=1;" parent="WIyWlLk6GJQsqaUBKTNV-1" vertex="1">
          <mxGeometry x="838.93" y="775" width="268.63" height="70" as="geometry" />
        </mxCell>
        <mxCell id="HWznGPXGOaG3OOnh7ew8-198" value="Yes" style="edgeStyle=orthogonalEdgeStyle;rounded=0;orthogonalLoop=1;jettySize=auto;html=1;dashed=1;endArrow=block;endFill=0;" parent="WIyWlLk6GJQsqaUBKTNV-1" source="HWznGPXGOaG3OOnh7ew8-139" edge="1">
          <mxGeometry relative="1" as="geometry">
            <mxPoint x="1200" y="441.25" as="targetPoint" />
          </mxGeometry>
        </mxCell>
        <mxCell id="t6AYDTPspbTz2cC4Gzjq-9" style="edgeStyle=orthogonalEdgeStyle;rounded=0;orthogonalLoop=1;jettySize=auto;html=1;entryX=0;entryY=0.5;entryDx=0;entryDy=0;dashed=1;endArrow=block;endFill=0;" parent="WIyWlLk6GJQsqaUBKTNV-1" source="HWznGPXGOaG3OOnh7ew8-139" target="HWznGPXGOaG3OOnh7ew8-231" edge="1">
          <mxGeometry relative="1" as="geometry">
            <Array as="points">
              <mxPoint x="974" y="-270" />
            </Array>
          </mxGeometry>
        </mxCell>
        <mxCell id="HWznGPXGOaG3OOnh7ew8-139" value="flag가 존재하는가?" style="rhombus;whiteSpace=wrap;html=1;shadow=0;fontFamily=Helvetica;fontSize=12;align=center;strokeWidth=1;spacing=6;spacingTop=-4;" parent="WIyWlLk6GJQsqaUBKTNV-1" vertex="1">
          <mxGeometry x="847.87" y="406.25" width="252.13" height="70" as="geometry" />
        </mxCell>
        <mxCell id="HWznGPXGOaG3OOnh7ew8-164" value="No&lt;br&gt;( 우측 정렬)" style="edgeStyle=orthogonalEdgeStyle;rounded=0;orthogonalLoop=1;jettySize=auto;html=1;dashed=1;endArrow=block;endFill=0;entryX=0.5;entryY=1;entryDx=0;entryDy=0;" parent="WIyWlLk6GJQsqaUBKTNV-1" source="HWznGPXGOaG3OOnh7ew8-153" target="OvsMwWnRRP1DeN86lsT_-0" edge="1">
          <mxGeometry relative="1" as="geometry">
            <mxPoint x="1296" y="293" as="targetPoint" />
          </mxGeometry>
        </mxCell>
        <mxCell id="HWznGPXGOaG3OOnh7ew8-166" value="Yes" style="edgeStyle=orthogonalEdgeStyle;rounded=0;orthogonalLoop=1;jettySize=auto;html=1;dashed=1;endArrow=block;endFill=0;" parent="WIyWlLk6GJQsqaUBKTNV-1" source="HWznGPXGOaG3OOnh7ew8-153" target="HWznGPXGOaG3OOnh7ew8-165" edge="1">
          <mxGeometry relative="1" as="geometry" />
        </mxCell>
        <mxCell id="HWznGPXGOaG3OOnh7ew8-153" value="flag가 &#39;-&#39;인 경우&lt;br&gt;( 좌측정렬 )" style="rhombus;whiteSpace=wrap;html=1;shadow=0;fontFamily=Helvetica;fontSize=12;align=center;strokeWidth=1;spacing=6;spacingTop=-4;" parent="WIyWlLk6GJQsqaUBKTNV-1" vertex="1">
          <mxGeometry x="1195" y="406.25" width="200" height="70" as="geometry" />
        </mxCell>
        <mxCell id="HWznGPXGOaG3OOnh7ew8-167" value="Yes" style="edgeStyle=orthogonalEdgeStyle;rounded=0;orthogonalLoop=1;jettySize=auto;html=1;dashed=1;endArrow=block;endFill=0;" parent="WIyWlLk6GJQsqaUBKTNV-1" source="HWznGPXGOaG3OOnh7ew8-165" edge="1">
          <mxGeometry relative="1" as="geometry">
            <mxPoint x="1755" y="441.25" as="targetPoint" />
          </mxGeometry>
        </mxCell>
        <mxCell id="HWznGPXGOaG3OOnh7ew8-171" value="No" style="edgeStyle=orthogonalEdgeStyle;rounded=0;orthogonalLoop=1;jettySize=auto;html=1;exitX=0.5;exitY=0;exitDx=0;exitDy=0;dashed=1;endArrow=block;endFill=0;" parent="WIyWlLk6GJQsqaUBKTNV-1" source="HWznGPXGOaG3OOnh7ew8-165" edge="1">
          <mxGeometry relative="1" as="geometry">
            <mxPoint x="1740" y="286.25" as="targetPoint" />
          </mxGeometry>
        </mxCell>
        <mxCell id="HWznGPXGOaG3OOnh7ew8-165" value="음수의 경우" style="rhombus;whiteSpace=wrap;html=1;shadow=0;fontFamily=Helvetica;fontSize=12;align=center;strokeWidth=1;spacing=6;spacingTop=-4;" parent="WIyWlLk6GJQsqaUBKTNV-1" vertex="1">
          <mxGeometry x="1475" y="406.25" width="210" height="70" as="geometry" />
        </mxCell>
        <mxCell id="HWznGPXGOaG3OOnh7ew8-210" style="edgeStyle=orthogonalEdgeStyle;rounded=0;orthogonalLoop=1;jettySize=auto;html=1;entryX=1;entryY=0.5;entryDx=0;entryDy=0;dashed=1;endArrow=block;endFill=0;" parent="WIyWlLk6GJQsqaUBKTNV-1" source="HWznGPXGOaG3OOnh7ew8-168" target="HWznGPXGOaG3OOnh7ew8-169" edge="1">
          <mxGeometry relative="1" as="geometry">
            <Array as="points">
              <mxPoint x="1960" y="441" />
              <mxPoint x="1960" y="251" />
            </Array>
          </mxGeometry>
        </mxCell>
        <mxCell id="HWznGPXGOaG3OOnh7ew8-168" value="0번째 idx를 &#39;-&#39;로 채운다." style="rounded=1;whiteSpace=wrap;html=1;" parent="WIyWlLk6GJQsqaUBKTNV-1" vertex="1">
          <mxGeometry x="1755" y="421.25" width="160.76" height="40" as="geometry" />
        </mxCell>
        <mxCell id="t6AYDTPspbTz2cC4Gzjq-10" style="edgeStyle=orthogonalEdgeStyle;rounded=0;orthogonalLoop=1;jettySize=auto;html=1;dashed=1;endArrow=block;endFill=0;" parent="WIyWlLk6GJQsqaUBKTNV-1" source="HWznGPXGOaG3OOnh7ew8-169" target="t6AYDTPspbTz2cC4Gzjq-1" edge="1">
          <mxGeometry relative="1" as="geometry">
            <mxPoint x="1358" y="-539" as="targetPoint" />
            <Array as="points">
              <mxPoint x="1740" y="130" />
              <mxPoint x="1940" y="130" />
              <mxPoint x="1940" y="-539" />
            </Array>
          </mxGeometry>
        </mxCell>
        <mxCell id="HWznGPXGOaG3OOnh7ew8-169" value="idx부터 [정밀도크기 - 가변길이 크기 ]만큼 &lt;br&gt;padding을 0으로 채운다.&lt;br&gt;&lt;br&gt;나머지는 출력대상(가변인수)로 채워넣는다." style="rounded=1;whiteSpace=wrap;html=1;" parent="WIyWlLk6GJQsqaUBKTNV-1" vertex="1">
          <mxGeometry x="1575" y="216.25" width="330" height="70" as="geometry" />
        </mxCell>
        <mxCell id="HWznGPXGOaG3OOnh7ew8-194" value="Yes" style="edgeStyle=orthogonalEdgeStyle;rounded=0;orthogonalLoop=1;jettySize=auto;html=1;dashed=1;endArrow=block;endFill=0;" parent="WIyWlLk6GJQsqaUBKTNV-1" source="HWznGPXGOaG3OOnh7ew8-192" target="HWznGPXGOaG3OOnh7ew8-195" edge="1">
          <mxGeometry relative="1" as="geometry">
            <mxPoint x="1443.5" y="815" as="targetPoint" />
          </mxGeometry>
        </mxCell>
        <mxCell id="HWznGPXGOaG3OOnh7ew8-192" value="음수 or flag가 &#39;+&#39; or &#39; &#39;인 경우" style="rhombus;whiteSpace=wrap;html=1;" parent="WIyWlLk6GJQsqaUBKTNV-1" vertex="1">
          <mxGeometry x="1151.25" y="770" width="250" height="80" as="geometry" />
        </mxCell>
        <mxCell id="HWznGPXGOaG3OOnh7ew8-195" value="Max값 비교할 때는 [ 가변인수 길이 + 1]&lt;br&gt;- 실제 가변인 수 길이는 값만 기록한다. 위에서 idx비교할 때 사용 됨.&lt;br&gt;- 그러나 동적할당은 부호를 표시하기 때문에 + 1한 값을 비교 함." style="rounded=1;whiteSpace=wrap;html=1;" parent="WIyWlLk6GJQsqaUBKTNV-1" vertex="1">
          <mxGeometry x="1475" y="780" width="375" height="60" as="geometry" />
        </mxCell>
        <mxCell id="HWznGPXGOaG3OOnh7ew8-218" style="edgeStyle=orthogonalEdgeStyle;rounded=0;orthogonalLoop=1;jettySize=auto;html=1;dashed=1;endArrow=block;endFill=0;" parent="WIyWlLk6GJQsqaUBKTNV-1" source="HWznGPXGOaG3OOnh7ew8-217" target="HWznGPXGOaG3OOnh7ew8-219" edge="1">
          <mxGeometry relative="1" as="geometry">
            <mxPoint x="1296.25" y="80" as="targetPoint" />
          </mxGeometry>
        </mxCell>
        <mxCell id="HWznGPXGOaG3OOnh7ew8-217" value="폭 만큼 &#39; &#39;(space)로 채운다." style="rounded=1;whiteSpace=wrap;html=1;" parent="WIyWlLk6GJQsqaUBKTNV-1" vertex="1">
          <mxGeometry x="1195" y="148.75" width="202.5" height="31.25" as="geometry" />
        </mxCell>
        <mxCell id="HWznGPXGOaG3OOnh7ew8-221" value="Yes" style="edgeStyle=orthogonalEdgeStyle;rounded=0;orthogonalLoop=1;jettySize=auto;html=1;dashed=1;endArrow=block;endFill=0;" parent="WIyWlLk6GJQsqaUBKTNV-1" source="HWznGPXGOaG3OOnh7ew8-219" target="HWznGPXGOaG3OOnh7ew8-222" edge="1">
          <mxGeometry relative="1" as="geometry">
            <mxPoint x="1480" y="48" as="targetPoint" />
          </mxGeometry>
        </mxCell>
        <mxCell id="HWznGPXGOaG3OOnh7ew8-223" value="No" style="edgeStyle=orthogonalEdgeStyle;rounded=0;orthogonalLoop=1;jettySize=auto;html=1;dashed=1;endArrow=block;endFill=0;" parent="WIyWlLk6GJQsqaUBKTNV-1" source="HWznGPXGOaG3OOnh7ew8-219" target="HWznGPXGOaG3OOnh7ew8-224" edge="1">
          <mxGeometry relative="1" as="geometry">
            <mxPoint x="1296.25" y="-70" as="targetPoint" />
          </mxGeometry>
        </mxCell>
        <mxCell id="HWznGPXGOaG3OOnh7ew8-219" value="정밀도 크기 &amp;gt; 가변길이 크기" style="rhombus;whiteSpace=wrap;html=1;" parent="WIyWlLk6GJQsqaUBKTNV-1" vertex="1">
          <mxGeometry x="1191.25" y="18" width="210" height="60" as="geometry" />
        </mxCell>
        <mxCell id="HWznGPXGOaG3OOnh7ew8-225" style="edgeStyle=orthogonalEdgeStyle;rounded=0;orthogonalLoop=1;jettySize=auto;html=1;entryX=1;entryY=0.25;entryDx=0;entryDy=0;dashed=1;endArrow=block;endFill=0;" parent="WIyWlLk6GJQsqaUBKTNV-1" source="HWznGPXGOaG3OOnh7ew8-222" target="HWznGPXGOaG3OOnh7ew8-224" edge="1">
          <mxGeometry relative="1" as="geometry">
            <Array as="points">
              <mxPoint x="1910" y="47" />
              <mxPoint x="1910" y="-125" />
            </Array>
          </mxGeometry>
        </mxCell>
        <mxCell id="HWznGPXGOaG3OOnh7ew8-222" value="start: [ Max - 정밀도 ]이상&lt;br&gt;end: [ Max - 가변길이 크기 ] 미만&lt;br&gt;범위만큼 padding을 0으로 채운다." style="rounded=1;whiteSpace=wrap;html=1;" parent="WIyWlLk6GJQsqaUBKTNV-1" vertex="1">
          <mxGeometry x="1575" y="18" width="300" height="58" as="geometry" />
        </mxCell>
        <mxCell id="HWznGPXGOaG3OOnh7ew8-237" style="edgeStyle=orthogonalEdgeStyle;rounded=0;orthogonalLoop=1;jettySize=auto;html=1;entryX=0.5;entryY=1;entryDx=0;entryDy=0;dashed=1;endArrow=block;endFill=0;" parent="WIyWlLk6GJQsqaUBKTNV-1" source="HWznGPXGOaG3OOnh7ew8-224" target="HWznGPXGOaG3OOnh7ew8-231" edge="1">
          <mxGeometry relative="1" as="geometry" />
        </mxCell>
        <mxCell id="HWznGPXGOaG3OOnh7ew8-224" value="start:&amp;nbsp;[ Max - 가변길이 크기 ]이상&lt;br&gt;end: Max 미만&lt;br&gt;범위에 출력대상을 채워준다." style="rounded=1;whiteSpace=wrap;html=1;" parent="WIyWlLk6GJQsqaUBKTNV-1" vertex="1">
          <mxGeometry x="1127.5" y="-140" width="335" height="60" as="geometry" />
        </mxCell>
        <mxCell id="HWznGPXGOaG3OOnh7ew8-230" value="Yes" style="edgeStyle=orthogonalEdgeStyle;rounded=0;orthogonalLoop=1;jettySize=auto;html=1;dashed=1;endArrow=block;endFill=0;" parent="WIyWlLk6GJQsqaUBKTNV-1" source="HWznGPXGOaG3OOnh7ew8-231" target="HWznGPXGOaG3OOnh7ew8-232" edge="1">
          <mxGeometry relative="1" as="geometry">
            <mxPoint x="1473.5" y="-265" as="targetPoint" />
          </mxGeometry>
        </mxCell>
        <mxCell id="t6AYDTPspbTz2cC4Gzjq-0" style="edgeStyle=orthogonalEdgeStyle;rounded=0;orthogonalLoop=1;jettySize=auto;html=1;exitX=0.5;exitY=0;exitDx=0;exitDy=0;dashed=1;endArrow=block;endFill=0;" parent="WIyWlLk6GJQsqaUBKTNV-1" source="HWznGPXGOaG3OOnh7ew8-231" target="t6AYDTPspbTz2cC4Gzjq-1" edge="1">
          <mxGeometry relative="1" as="geometry">
            <mxPoint x="1295.4285714285716" y="-450" as="targetPoint" />
          </mxGeometry>
        </mxCell>
        <mxCell id="HWznGPXGOaG3OOnh7ew8-231" value="음수 or flag가 &#39;+&#39; or &#39; &#39;인 경우" style="rhombus;whiteSpace=wrap;html=1;" parent="WIyWlLk6GJQsqaUBKTNV-1" vertex="1">
          <mxGeometry x="1160" y="-310" width="271.25" height="80" as="geometry" />
        </mxCell>
        <mxCell id="t6AYDTPspbTz2cC4Gzjq-2" style="edgeStyle=orthogonalEdgeStyle;rounded=0;orthogonalLoop=1;jettySize=auto;html=1;dashed=1;endArrow=block;endFill=0;" parent="WIyWlLk6GJQsqaUBKTNV-1" source="HWznGPXGOaG3OOnh7ew8-232" target="t6AYDTPspbTz2cC4Gzjq-1" edge="1">
          <mxGeometry relative="1" as="geometry">
            <mxPoint x="1360" y="-520" as="targetPoint" />
            <Array as="points">
              <mxPoint x="1870" y="-270" />
              <mxPoint x="1870" y="-520" />
            </Array>
          </mxGeometry>
        </mxCell>
        <mxCell id="HWznGPXGOaG3OOnh7ew8-232" value="start - 1에 부호를 채워준다.&lt;br&gt;음수 : -1&lt;br&gt;양수: flag에 해당하는 char" style="rounded=1;whiteSpace=wrap;html=1;" parent="WIyWlLk6GJQsqaUBKTNV-1" vertex="1">
          <mxGeometry x="1505" y="-300" width="260" height="60" as="geometry" />
        </mxCell>
        <mxCell id="t6AYDTPspbTz2cC4Gzjq-1" value="최종 결과를 한번에 write 한다." style="rounded=1;whiteSpace=wrap;html=1;" parent="WIyWlLk6GJQsqaUBKTNV-1" vertex="1">
          <mxGeometry x="1234.9985714285717" y="-560" width="120" height="60" as="geometry" />
        </mxCell>
        <mxCell id="t6AYDTPspbTz2cC4Gzjq-7" style="edgeStyle=orthogonalEdgeStyle;rounded=0;orthogonalLoop=1;jettySize=auto;html=1;dashed=1;endArrow=block;endFill=0;" parent="WIyWlLk6GJQsqaUBKTNV-1" source="t6AYDTPspbTz2cC4Gzjq-6" target="t6AYDTPspbTz2cC4Gzjq-8" edge="1">
          <mxGeometry relative="1" as="geometry">
            <mxPoint x="1460" y="935" as="targetPoint" />
          </mxGeometry>
        </mxCell>
        <mxCell id="t6AYDTPspbTz2cC4Gzjq-6" value="flag가 e, E 또는 x, X인 경우" style="rhombus;whiteSpace=wrap;html=1;" parent="WIyWlLk6GJQsqaUBKTNV-1" vertex="1">
          <mxGeometry x="1165.25" y="895" width="220" height="80" as="geometry" />
        </mxCell>
        <mxCell id="t6AYDTPspbTz2cC4Gzjq-8" value="값을 지수 표기법 or 16진수 표현법으로 바꾸어서 계산한다." style="rounded=1;whiteSpace=wrap;html=1;" parent="WIyWlLk6GJQsqaUBKTNV-1" vertex="1">
          <mxGeometry x="1510" y="905" width="360" height="60" as="geometry" />
        </mxCell>
        <mxCell id="OvsMwWnRRP1DeN86lsT_-1" value="no" style="edgeStyle=orthogonalEdgeStyle;rounded=0;orthogonalLoop=1;jettySize=auto;html=1;dashed=1;endArrow=block;endFill=0;" edge="1" parent="WIyWlLk6GJQsqaUBKTNV-1" source="OvsMwWnRRP1DeN86lsT_-0" target="HWznGPXGOaG3OOnh7ew8-217">
          <mxGeometry relative="1" as="geometry">
            <Array as="points">
              <mxPoint x="1295" y="190" />
              <mxPoint x="1296" y="190" />
            </Array>
          </mxGeometry>
        </mxCell>
        <mxCell id="OvsMwWnRRP1DeN86lsT_-2" value="yes" style="edgeStyle=orthogonalEdgeStyle;rounded=0;orthogonalLoop=1;jettySize=auto;html=1;dashed=1;endArrow=block;endFill=0;" edge="1" parent="WIyWlLk6GJQsqaUBKTNV-1" source="OvsMwWnRRP1DeN86lsT_-0" target="OvsMwWnRRP1DeN86lsT_-3">
          <mxGeometry relative="1" as="geometry">
            <mxPoint x="1110" y="270" as="targetPoint" />
          </mxGeometry>
        </mxCell>
        <mxCell id="OvsMwWnRRP1DeN86lsT_-0" value="flag가 &#39;0&#39;인 경우" style="rhombus;whiteSpace=wrap;html=1;" vertex="1" parent="WIyWlLk6GJQsqaUBKTNV-1">
          <mxGeometry x="1191.25" y="240" width="210" height="60" as="geometry" />
        </mxCell>
        <mxCell id="OvsMwWnRRP1DeN86lsT_-3" value="폭은 0으로 출력" style="rounded=1;whiteSpace=wrap;html=1;" vertex="1" parent="WIyWlLk6GJQsqaUBKTNV-1">
          <mxGeometry x="990" y="240" width="140" height="60" as="geometry" />
        </mxCell>
        <mxCell id="OvsMwWnRRP1DeN86lsT_-6" style="edgeStyle=orthogonalEdgeStyle;rounded=0;orthogonalLoop=1;jettySize=auto;html=1;entryX=0;entryY=0.5;entryDx=0;entryDy=0;dashed=1;endArrow=block;endFill=0;" edge="1" parent="WIyWlLk6GJQsqaUBKTNV-1" source="OvsMwWnRRP1DeN86lsT_-5" target="WIyWlLk6GJQsqaUBKTNV-7">
          <mxGeometry relative="1" as="geometry" />
        </mxCell>
        <mxCell id="OvsMwWnRRP1DeN86lsT_-5" value="%인가?" style="rhombus;whiteSpace=wrap;html=1;shadow=0;fontFamily=Helvetica;fontSize=12;align=center;strokeWidth=1;spacing=6;spacingTop=-4;" vertex="1" parent="WIyWlLk6GJQsqaUBKTNV-1">
          <mxGeometry x="560" y="530" width="130" height="80" as="geometry" />
        </mxCell>
        <mxCell id="OvsMwWnRRP1DeN86lsT_-21" value="" style="curved=1;endArrow=none;html=1;dashed=1;entryX=0.283;entryY=0.188;entryDx=0;entryDy=0;entryPerimeter=0;exitX=0;exitY=0.5;exitDx=0;exitDy=0;endFill=0;strokeWidth=2;strokeColor=#CC0000;" edge="1" parent="WIyWlLk6GJQsqaUBKTNV-1" source="HWznGPXGOaG3OOnh7ew8-31" target="WIyWlLk6GJQsqaUBKTNV-6">
          <mxGeometry width="50" height="50" relative="1" as="geometry">
            <mxPoint x="300" y="1292.7586206896551" as="sourcePoint" />
            <mxPoint x="220" y="520" as="targetPoint" />
            <Array as="points">
              <mxPoint x="120" y="1170" />
              <mxPoint x="170" y="520" />
              <mxPoint x="250" y="250" />
            </Array>
          </mxGeometry>
        </mxCell>
      </root>
    </mxGraphModel>
  </diagram>
</mxfile>
